<svg width="512" height="512" viewBox="0 0 512 512" fill="none" xmlns="http://www.w3.org/2000/svg">
  <defs>
    <linearGradient id="bg" x1="64" y1="48" x2="448" y2="464" gradientUnits="userSpaceOnUse">
      <stop offset="0" stop-color="#4F46E5"/>
      <stop offset="0.62" stop-color="#7C3AED"/>
      <stop offset="1" stop-color="#06B6D4"/>
    </linearGradient>
    <filter id="shadow" x="90" y="70" width="360" height="390" filterUnits="userSpaceOnUse" color-interpolation-filters="sRGB">
      <feDropShadow dx="18" dy="20" stdDeviation="12" flood-color="#111827" flood-opacity="0.36"/>
    </filter>
    <filter id="badgeShadow" x="270" y="298" width="190" height="160" filterUnits="userSpaceOnUse" color-interpolation-filters="sRGB">
      <feDropShadow dx="8" dy="10" stdDeviation="8" flood-color="#0F172A" flood-opacity="0.36"/>
    </filter>
  </defs>
  <rect width="512" height="512" rx="112" fill="url(#bg)"/>
  <rect x="34" y="34" width="444" height="444" rx="88" stroke="white" stroke-opacity="0.15" stroke-width="7"/>
  <g filter="url(#shadow)">
    <rect x="128" y="92" width="256" height="298" rx="34" fill="white" fill-opacity="0.97"/>
    <rect x="156" y="124" width="200" height="30" rx="15" fill="#E0E7FF"/>
    <circle cx="170" cy="137" r="5" fill="#6366F1"/>
    <circle cx="194" cy="137" r="5" fill="#7C3AED"/>
    <circle cx="218" cy="137" r="5" fill="#06B6D4"/>
    <rect x="156" y="186" width="158" height="19" rx="9.5" fill="#4F46E5" fill-opacity="0.82"/>
    <rect x="156" y="232" width="186" height="17" rx="8.5" fill="#94A3B8"/>
    <rect x="156" y="267" width="172" height="17" rx="8.5" fill="#94A3B8"/>
    <rect x="156" y="302" width="126" height="17" rx="8.5" fill="#94A3B8"/>
  </g>
  <g filter="url(#badgeShadow)">
    <rect x="292" y="314" width="138" height="112" rx="34" fill="#10B981"/>
    <circle cx="332" cy="359" r="12" fill="#ECFDF5"/>
    <path d="M354 370L378 392L412 346" stroke="white" stroke-width="18" stroke-linecap="round" stroke-linejoin="round"/>
  </g>
</svg>
